<?xml version="1.0" encoding="utf-8"?>
<!-- Generator: Adobe Illustrator 25.2.1, SVG Export Plug-In . SVG Version: 6.00 Build 0)  -->
<svg version="1.1" id="레이어_1" xmlns="http://www.w3.org/2000/svg" xmlns:xlink="http://www.w3.org/1999/xlink" x="0px"
	 y="0px" viewBox="0 0 708.7 708.7" style="enable-background:new 0 0 708.7 708.7;" xml:space="preserve">
<style type="text/css">
	.st0{fill:#D40500;}
	.st1{fill:none;}
	.st2{fill:#6A7CFF;}
	.st3{font-family:'AppleSDGothicNeo-Bold-KSCpc-EUC-H';}
	.st4{font-size:156.8842px;}
</style>
<rect x="311.3" y="27.4" class="st0" width="90.3" height="246.1"/>
<path class="st0" d="M311.5,273.5V27.4H309v246.1H311.5z M400.5,272.1h-90.3v2.8h90.3L400.5,272.1L400.5,272.1z M399.3,27.4v246.1
	h2.5V27.4H399.3z M310.3,28.9h90.3v-2.8h-90.3L310.3,28.9L310.3,28.9z M310.3,273.5h-1.2v1.5h1.2V273.5z M400.5,273.5v1.5h1.2v-1.5
	H400.5z M400.5,27.4h1.2V26h-1.2V27.4z M310.3,27.4V26h-1.2v1.5H310.3z"/>
<polygon class="st0" points="355.4,549.6 509.2,273.6 201.6,273.6 "/>
<path class="st0" d="M200.5,274.3l153.8,276l2.2-1.3l-153.8-276L200.5,274.3z M509.2,272.4H201.6v2.5h307.6V272.4z M356.5,550.3
	l153.8-276l-2.2-1.3L354.3,549L356.5,550.3z M201.6,273.6v-1.3h-2.2l1.1,1.9L201.6,273.6z M509.2,273.6l1.1,0.7l1.1-1.9h-2.2
	L509.2,273.6L509.2,273.6z M355.4,549.6l-1.1,0.7l1.1,1.9l1.1-1.9L355.4,549.6z"/>
<rect x="1.1" y="563.9" class="st1" width="708.7" height="170.8"/>
<text transform="matrix(0.9397 0 0 1 31.9108 671.1338)" class="st2 st3 st4">download</text>
<text transform="matrix(1 0 0 1 938.9615 852.8971)" style="font-family:'AdobeMyungjoStd-Medium-KSCpc-EUC-H'; font-size:12px;">국가는 노인과 청소년의 복지향상을 위한 정책을 실시할 의무를 진다.</text>
<rect x="31.9" y="568.2" class="st1" width="643.1" height="111.7"/>
</svg>
