<?xml version="1.0" encoding="utf-8"?>
<!-- Generator: Adobe Illustrator 25.2.1, SVG Export Plug-In . SVG Version: 6.00 Build 0)  -->
<svg version="1.1" id="레이어_1" xmlns="http://www.w3.org/2000/svg" xmlns:xlink="http://www.w3.org/1999/xlink" x="0px"
	 y="0px" viewBox="0 0 781 987" style="enable-background:new 0 0 781 987;" xml:space="preserve">
<style type="text/css">
	.st0{fill:#D40500;}
	.st1{fill:none;}
	.st2{fill:#6A7CFF;}
	.st3{font-family:'AppleSDGothicNeo-Bold-KSCpc-EUC-H';}
	.st4{font-size:203.6485px;}
</style>
<rect x="345.4" y="142.9" class="st0" width="90.3" height="252.8"/>
<path class="st0" d="M346.6,395.7V142.9h-2.5v252.8H346.6z M435.6,394.2h-90.3v2.9h90.3V394.2z M434.4,142.9v252.8h2.5V142.9H434.4z
	 M345.4,144.4h90.3v-2.9h-90.3V144.4z M345.4,395.7h-1.2v1.5h1.2V395.7z M435.6,395.7v1.5h1.2v-1.5H435.6z M435.6,142.9h1.2v-1.5
	h-1.2V142.9z M345.4,142.9v-1.5h-1.2v1.5H345.4z"/>
<polygon class="st0" points="390.5,679.3 544.3,395.8 236.7,395.8 "/>
<path class="st0" d="M235.6,396.5L389.4,680l2.2-1.3L237.8,395.2L235.6,396.5z M544.3,394.5H236.7v2.6h307.6V394.5z M391.6,680
	l153.8-283.5l-2.2-1.3L389.4,678.6L391.6,680z M236.7,395.8v-1.3h-2.2l1.1,2L236.7,395.8z M544.3,395.8l1.1,0.7l1.1-2h-2.2V395.8z
	 M390.5,679.3l-1.1,0.7l1.1,2l1.1-2L390.5,679.3z"/>
<rect x="36.2" y="679.3" class="st1" width="708.7" height="170.8"/>
<text transform="matrix(0.9397 0 0 1 36.1875 842.2178)" class="st2 st3 st4">downbit</text>
</svg>
